<?xml version="1.0" encoding="UTF-8"?>
<svg width="171px" height="46px" viewBox="0 0 171 46" version="1.1" xmlns="http://www.w3.org/2000/svg" xmlns:xlink="http://www.w3.org/1999/xlink">
    <!-- Generator: Sketch 48.1 (47250) - http://www.bohemiancoding.com/sketch -->
    <title>Group 2</title>
    <desc>Created with Sketch.</desc>
    <defs></defs>
    <g id="Mobile" stroke="none" stroke-width="1" fill="none" fill-rule="evenodd" transform="translate(-93.000000, -300.000000)">
        <g id="Group-2" transform="translate(94.000000, 291.000000)" stroke="#78A4F1">
            <path d="M16.872,34.54 C16.872,36.4120094 16.3800049,37.8879946 15.396,38.968 C14.4119951,40.0480054 13.116008,40.8279976 11.508,41.308 C11.8920019,41.7880024 12.3899969,42.4359959 13.002,43.252 C13.6140031,44.0680041 14.2439968,44.9619951 14.892,45.934 C15.5400032,46.9060049 16.1759969,47.9199947 16.8,48.976 C17.4240031,50.0320053 17.9519978,51.0399952 18.384,52 L15.756,52 C15.2519975,51.0399952 14.7060029,50.0800048 14.118,49.12 C13.5299971,48.1599952 12.9300031,47.2300045 12.318,46.33 C11.7059969,45.4299955 11.1120029,44.5960038 10.536,43.828 L9.024,41.812 C8.25599616,41.8840004 7.48800384,41.92 6.72,41.92 L2.688,41.92 L2.688,52 L0.24,52 L0.24,27.52 C1.10400432,27.2799988 2.11799418,27.1060005 3.282,26.998 C4.44600582,26.8899995 5.51999508,26.836 6.504,26.836 C9.93601716,26.836 12.5219913,27.4839935 14.262,28.78 C16.0020087,30.0760065 16.872,31.9959873 16.872,34.54 Z M6.792,28.96 C5.87999544,28.96 5.08200342,28.9899997 4.398,29.05 C3.71399658,29.1100003 3.14400228,29.1639998 2.688,29.212 L2.688,39.832 L6.072,39.832 C7.20000564,39.832 8.26799496,39.7780005 9.276,39.67 C10.284005,39.5619995 11.1599963,39.3220019 11.904,38.95 C12.6480037,38.5779981 13.2359978,38.0440035 13.668,37.348 C14.1000022,36.6519965 14.316,35.704006 14.316,34.504 C14.316,33.3999945 14.1000022,32.4880036 13.668,31.768 C13.2359978,31.0479964 12.6720035,30.4780021 11.976,30.058 C11.2799965,29.6379979 10.4820045,29.3500008 9.582,29.194 C8.6819955,29.0379992 7.7520048,28.96 6.792,28.96 Z M28.488,52 L28.488,27.052 L42.888,27.052 L42.888,29.176 L30.936,29.176 L30.936,37.852 L41.592,37.852 L41.592,39.94 L30.936,39.94 L30.936,49.876 L43.824,49.876 L43.824,52 L28.488,52 Z M59.832,50.416 C61.7760097,50.416 63.2879946,50.0620035 64.368,49.354 C65.4480054,48.6459965 65.988,47.5000079 65.988,45.916 C65.988,45.0039954 65.8140017,44.2420031 65.466,43.63 C65.1179983,43.0179969 64.6560029,42.5020021 64.08,42.082 C63.5039971,41.6619979 62.8440037,41.3020015 62.1,41.002 C61.3559963,40.7019985 60.5760041,40.3840017 59.76,40.048 C58.7279948,39.639998 57.8040041,39.2200022 56.988,38.788 C56.1719959,38.3559978 55.4760029,37.8700027 54.9,37.33 C54.3239971,36.7899973 53.8860015,36.1720035 53.586,35.476 C53.2859985,34.7799965 53.136,33.9640047 53.136,33.028 C53.136,30.8919893 53.8439929,29.2720055 55.26,28.168 C56.6760071,27.0639945 58.6439874,26.512 61.164,26.512 C61.8360034,26.512 62.4959968,26.5599995 63.144,26.656 C63.7920032,26.7520005 64.3979972,26.8779992 64.962,27.034 C65.5260028,27.1900008 66.0419977,27.363999 66.51,27.556 C66.9780023,27.748001 67.3679984,27.9519989 67.68,28.168 L66.816,30.22 C66.1199965,29.7399976 65.274005,29.3560014 64.278,29.068 C63.281995,28.7799986 62.2080058,28.636 61.056,28.636 C60.263996,28.636 59.5380033,28.7139992 58.878,28.87 C58.2179967,29.0260008 57.6480024,29.2779983 57.168,29.626 C56.6879976,29.9740017 56.3100014,30.4119974 56.034,30.94 C55.7579986,31.4680026 55.62,32.1039963 55.62,32.848 C55.62,33.6160038 55.7639986,34.2639974 56.052,34.792 C56.3400014,35.3200026 56.7419974,35.7759981 57.258,36.16 C57.7740026,36.5440019 58.3799965,36.8919984 59.076,37.204 C59.7720035,37.5160016 60.5279959,37.8399983 61.344,38.176 C62.3280049,38.584002 63.2579956,38.991998 64.134,39.4 C65.0100044,39.808002 65.7719968,40.2879972 66.42,40.84 C67.0680032,41.3920028 67.5839981,42.063996 67.968,42.856 C68.3520019,43.648004 68.544,44.6199942 68.544,45.772 C68.544,48.0280113 67.7580079,49.7199944 66.186,50.848 C64.6139921,51.9760056 62.4840134,52.54 59.796,52.54 C58.8359952,52.54 57.960004,52.4800006 57.168,52.36 C56.375996,52.2399994 55.6680031,52.0900009 55.044,51.91 C54.4199969,51.7299991 53.8920022,51.544001 53.46,51.352 C53.0279978,51.159999 52.6920012,50.9920007 52.452,50.848 L53.244,48.724 C53.4840012,48.8680007 53.807998,49.035999 54.216,49.228 C54.624002,49.420001 55.1039972,49.6059991 55.656,49.786 C56.2080028,49.9660009 56.8319965,50.1159994 57.528,50.236 C58.2240035,50.3560006 58.9919958,50.416 59.832,50.416 Z M94.92,27.052 L94.92,29.176 L86.928,29.176 L86.928,52 L84.48,52 L84.48,29.176 L76.488,29.176 L76.488,27.052 L94.92,27.052 Z M160.004,50.416 C161.94801,50.416 163.459995,50.0620035 164.54,49.354 C165.620005,48.6459965 166.16,47.5000079 166.16,45.916 C166.16,45.0039954 165.986002,44.2420031 165.638,43.63 C165.289998,43.0179969 164.828003,42.5020021 164.252,42.082 C163.675997,41.6619979 163.016004,41.3020015 162.272,41.002 C161.527996,40.7019985 160.748004,40.3840017 159.932,40.048 C158.899995,39.639998 157.976004,39.2200022 157.16,38.788 C156.343996,38.3559978 155.648003,37.8700027 155.072,37.33 C154.495997,36.7899973 154.058001,36.1720035 153.758,35.476 C153.457999,34.7799965 153.308,33.9640047 153.308,33.028 C153.308,30.8919893 154.015993,29.2720055 155.432,28.168 C156.848007,27.0639945 158.815987,26.512 161.336,26.512 C162.008003,26.512 162.667997,26.5599995 163.316,26.656 C163.964003,26.7520005 164.569997,26.8779992 165.134,27.034 C165.698003,27.1900008 166.213998,27.363999 166.682,27.556 C167.150002,27.748001 167.539998,27.9519989 167.852,28.168 L166.988,30.22 C166.291997,29.7399976 165.446005,29.3560014 164.45,29.068 C163.453995,28.7799986 162.380006,28.636 161.228,28.636 C160.435996,28.636 159.710003,28.7139992 159.05,28.87 C158.389997,29.0260008 157.820002,29.2779983 157.34,29.626 C156.859998,29.9740017 156.482001,30.4119974 156.206,30.94 C155.929999,31.4680026 155.792,32.1039963 155.792,32.848 C155.792,33.6160038 155.935999,34.2639974 156.224,34.792 C156.512001,35.3200026 156.913997,35.7759981 157.43,36.16 C157.946003,36.5440019 158.551997,36.8919984 159.248,37.204 C159.944003,37.5160016 160.699996,37.8399983 161.516,38.176 C162.500005,38.584002 163.429996,38.991998 164.306,39.4 C165.182004,39.808002 165.943997,40.2879972 166.592,40.84 C167.240003,41.3920028 167.755998,42.063996 168.14,42.856 C168.524002,43.648004 168.716,44.6199942 168.716,45.772 C168.716,48.0280113 167.930008,49.7199944 166.358,50.848 C164.785992,51.9760056 162.656013,52.54 159.968,52.54 C159.007995,52.54 158.132004,52.4800006 157.34,52.36 C156.547996,52.2399994 155.840003,52.0900009 155.216,51.91 C154.591997,51.7299991 154.064002,51.544001 153.632,51.352 C153.199998,51.159999 152.864001,50.9920007 152.624,50.848 L153.416,48.724 C153.656001,48.8680007 153.979998,49.035999 154.388,49.228 C154.796002,49.420001 155.275997,49.6059991 155.828,49.786 C156.380003,49.9660009 157.003997,50.1159994 157.7,50.236 C158.396003,50.3560006 159.163996,50.416 160.004,50.416 Z" id="REST-S"></path>
            <path d="M124.258476,56.6537003 C135.388722,58.3765391 147.73508,46.1428667 147.73508,33.1770963 C147.73508,20.2113259 137.224246,9.70049225 124.258476,9.70049225 C111.292706,9.70049225 100.781872,20.2113259 100.781872,33.1770963 C100.781872,36.0358275 102.271031,41.7960747 103.34534,42.3840039 C104.076083,42.7839131 104.222264,39.2023017 105.51467,37.9098949 C107.080795,36.3437703 111.535919,32.6569053 118.880043,26.8493 C113.092559,32.8801886 109.930525,36.3374863 109.393942,37.2211931 C108.589068,38.5467533 120.42412,28.3933764 120.479237,28.448494 C120.534355,28.5036117 110.429841,38.2570924 111.226116,39.0533667 C111.756965,39.5842162 115.332056,36.5399753 121.951387,29.9206438 C115.457415,37.2464629 111.743032,41.3767694 110.808238,42.3115632 C109.406047,43.713754 107.010201,43.61406 107.433552,44.4384795 C107.856902,45.262899 111.832019,50.0487538 113.589921,50.5948487 C115.347822,51.1409435 127.721729,38.4382079 128.785073,37.7036931 C129.848416,36.9691783 130.321063,37.1778026 131.421071,38.2778104 C132.521078,39.3778182 130.91133,44.1914273 128.753141,46.349616 C126.594952,48.5078047 122.181631,52.9211267 120.615273,54.4874847 C119.048915,56.0538426 113.12823,54.9308615 124.258476,56.6537003 Z" id="Oval" transform="translate(124.258476, 33.258476) rotate(-45.000000) translate(-124.258476, -33.258476) "></path>
        </g>
    </g>
</svg>